#N canvas 810 153 534 594 10;
#X obj 162 102 text define interface;
#X msg 174 67 write interface.txt;
#X msg 158 47 read interface.txt;
#X obj 29 137 until;
#X obj 31 186 t f f;
#X obj 29 161 f;
#X obj 56 209 + 1;
#X obj 29 115 t f b;
#X msg 71 137 0;
#X obj 31 236 text get interface;
#X obj 29 94 text size interface;
#X obj 31 60 bng 15 250 50 0 empty empty empty 17 7 0 10 -262144 -1
-1;
#X obj 31 278 list trim;
#X obj 31 301 route #;
#X obj 31 345 t a a;
#X msg 58 367 /nexus/delete \$1;
#X obj 32 406 list prepend /nexus/create;
#X obj 32 323 list;
#X obj 31 7 loadbang;
#X obj 213 223 pd-osc/oReceive 57120;
#X obj 353 270 pd-osc/oRemSlash;
#X obj 305 412 list prepend /nexus/update;
#X obj 305 374 list prepend;
#X obj 376 340 list append value;
#X obj 304 282 t a a;
#X obj 316 348 send;
#X obj 379 309 t a a;
#X obj 329 321 symbol;
#X obj 460 58 vsl 15 128 0 1 0 0 empty empty empty 0 -9 0 10 -262144
-1 -1 0 1;
#X obj 382 59 vsl 15 128 0 1 0 0 empty empty empty 0 -9 0 10 -262144
-1 -1 0 1;
#X obj 409 58 vsl 15 128 0 1 0 0 empty empty empty 0 -9 0 10 -262144
-1 -1 0 1;
#X obj 437 58 vsl 15 128 0 1 0 0 empty empty empty 0 -9 0 10 -262144
-1 -1 0 1;
#N canvas 126 455 450 300 prepend 0;
#X obj 40 24 inlet;
#X obj 114 24 inlet;
#X obj 191 28 inlet;
#X obj 254 28 inlet;
#X obj 87 285 makefilename slide%d;
#X obj 39 59 list append 1;
#X obj 116 91 list append 2;
#X obj 191 63 list append 3;
#X obj 254 94 list append 4;
#X obj 66 183 list length;
#X obj 40 152 t l l;
#X obj 66 207 - 1;
#X obj 41 244 list split;
#X obj 25 321 outlet;
#X obj 88 331 outlet;
#X connect 0 0 5 0;
#X connect 1 0 6 0;
#X connect 2 0 7 0;
#X connect 3 0 8 0;
#X connect 4 0 14 0;
#X connect 5 0 10 0;
#X connect 6 0 10 0;
#X connect 7 0 10 0;
#X connect 8 0 10 0;
#X connect 9 0 11 0;
#X connect 10 0 12 0;
#X connect 10 1 9 0;
#X connect 11 0 12 1;
#X connect 12 0 13 0;
#X connect 12 1 4 0;
#X restore 383 203 pd prepend;
#N canvas 0 22 450 300 receive 0;
#X obj 20 7 r slide1;
#X obj 20 29 change;
#X obj 96 31 change;
#X obj 96 9 r slide2;
#X obj 177 31 change;
#X obj 177 9 r slide3;
#X obj 246 31 change;
#X obj 246 9 r slide4;
#X obj 19 71 outlet;
#X obj 96 81 outlet;
#X obj 158 91 outlet;
#X obj 243 96 outlet;
#X obj 319 31 change;
#X obj 316 96 outlet;
#X obj 319 9 r dial1;
#X connect 0 0 1 0;
#X connect 1 0 8 0;
#X connect 2 0 9 0;
#X connect 3 0 2 0;
#X connect 4 0 10 0;
#X connect 5 0 4 0;
#X connect 6 0 11 0;
#X connect 7 0 6 0;
#X connect 12 0 13 0;
#X connect 14 0 12 0;
#X restore 379 17 pd receive;
#X text 42 510 Valid Nexus widgets types include: dial \, position
\, keyboard \, button \, toggle \, slider \, multislider \, matrix
\, select \, tilt \, pixels \, colors \, joints \, comment \, message
\, number \, and multitouch.;
#X obj 59 455 pd-osc/oSend localhost 4444;
#X obj 31 32 t b b;
#X msg 161 1 read interface2.txt;
#X msg 177 21 write interface2.txt;
#X connect 1 0 0 0;
#X connect 2 0 0 0;
#X connect 3 0 5 0;
#X connect 4 0 9 0;
#X connect 4 1 6 0;
#X connect 5 0 4 0;
#X connect 6 0 5 1;
#X connect 7 0 3 0;
#X connect 7 1 8 0;
#X connect 8 0 5 1;
#X connect 9 0 12 0;
#X connect 10 0 7 0;
#X connect 11 0 10 0;
#X connect 12 0 13 0;
#X connect 13 1 17 0;
#X connect 14 0 16 0;
#X connect 14 1 15 0;
#X connect 15 0 35 0;
#X connect 16 0 35 0;
#X connect 17 0 14 0;
#X connect 18 0 36 0;
#X connect 19 1 24 0;
#X connect 19 2 20 0;
#X connect 20 0 26 0;
#X connect 21 0 35 0;
#X connect 22 0 21 0;
#X connect 23 0 22 1;
#X connect 24 0 22 0;
#X connect 24 1 25 0;
#X connect 26 0 23 0;
#X connect 26 1 27 0;
#X connect 27 0 25 1;
#X connect 28 0 32 3;
#X connect 29 0 32 0;
#X connect 30 0 32 1;
#X connect 31 0 32 2;
#X connect 32 0 24 0;
#X connect 32 1 26 0;
#X connect 33 0 29 0;
#X connect 33 1 30 0;
#X connect 33 2 31 0;
#X connect 33 3 28 0;
#X connect 36 0 11 0;
#X connect 36 1 2 0;
#X connect 37 0 0 0;
#X connect 38 0 0 0;
